<svg xmlns="http://www.w3.org/2000/svg" xmlns:xlink="http://www.w3.org/1999/xlink" version="1.1" x="0px" y="0px" viewBox="0 0 64 80" style="enable-background:new 0 0 64 64;" xml:space="preserve"><path d="M53.2734375,39.6162109l-3.4961548-1.4584961C50.6721191,37.4071655,51.8106079,36.9804688,53,36.9804688  c2.7675781,0,5.0195313,2.2519531,5.0195313,5.0195313S55.7675781,47.0195313,53,47.0195313  c-1.609375,0-3.0898438-0.7734375-4.0185547-2.0195313h3.21875C53.7441406,45,55,43.7441406,55,42.2001953  C55,41.0693359,54.3232422,40.0556641,53.2734375,39.6162109z M39.1054688,40.5527344L37.8821411,43h-0.4050293l1.3471069-3.3681641  l2.9296875-2.1972656l0.7858276,1.1779175l-2.9869995,1.492981C39.359375,40.2021484,39.2021484,40.359375,39.1054688,40.5527344z   M32.2705078,38.1445313l1.4648438,0.4882813L32.2792969,43h-2.5585938l-0.5761719-1.7294922L32.2705078,38.1445313z   M35.3164063,37.0517578l-1.4653931-0.4884644l1.4400635-1.4402466l4.4979858,1.2851563l-2.3886719,1.7919922  c-0.1474609,0.109375-0.2607422,0.2578125-0.3291016,0.4287109L35.322876,43h-0.9358521l1.5612183-4.6835938  C36.1230469,37.7919922,35.8398438,37.2255859,35.3164063,37.0517578z M51.6973267,31.3482056l0.888916,1.3334351  l-6.9699097,4.1799927c-0.0006104,0.0003662-0.0014648,0.0003052-0.0020752,0.0006714l-1.3116455,0.7889404l-0.8885498-1.3328857  L51.6973267,31.3482056z M54,30.3876953v0.6452026c-0.0372314-0.003418-0.0748291-0.0044556-0.1121216-0.0073242  l-0.3283081-0.491394L54,30.3876953z M45.2105713,32.9074707l-3.3527222,2.0115967l-4.2359009-1.2102661l5.0120239-2.7338257  L45.2105713,32.9074707z M37.2744141,25.9619141L43,24.3261719l-6.8945313,3.5029297l-2.7490234-2.0615234l0.9208984-1.3808594  l2.1679688,1.4453125C36.6894531,25.9941406,36.9921875,26.0410156,37.2744141,25.9619141z M20.9228516,22.8857422  C21.3808594,21.7402344,22.4746094,21,23.7080078,21h4.6865234c1.7030029,0,3.2987061,0.7498779,4.3816528,2.03302  l-1.6082153,2.4122925c-0.2939453,0.4414063-0.1923828,1.0361328,0.2324219,1.3544922l4,3  c0.0825195,0.062439,0.1735229,0.1071777,0.2681274,0.1403809c0.0314941,0.0111084,0.0639038,0.0141602,0.0961914,0.0220337  c0.0638428,0.0154419,0.1271973,0.0282593,0.1928101,0.0309448C35.9718628,29.9937744,35.9856567,30,36,30  c0.0161133,0,0.0311279-0.010376,0.0472412-0.0111694c0.1367188-0.0066528,0.2731934-0.0317993,0.4000244-0.0942993l8-4  c0.1001587-0.0502319,0.1849976-0.1193237,0.2609863-0.1965332c0.0228271-0.0231323,0.0407715-0.0487671,0.0612183-0.0740356  c0.0505981-0.0623779,0.0926514-0.1289673,0.1268921-0.2015381c0.008728-0.0184937,0.0247192-0.0322266,0.0323486-0.0513306  l1.7724609-4.4306641l5.6757813-0.515625l-4.8623047,2.7011719c-0.1767578,0.0976563-0.3193359,0.2460938-0.4091797,0.4267578  l-1.859375,3.7197266l-10.1601563,5.5419922l-11.4863281-8.6142578C23.4267578,24.0703125,23.2167969,24,23,24h-2.5234375  L20.9228516,22.8857422z M17.9892578,13.8085938l0.6074219-0.3789063l1.8173218,3.6337891  c-3.2278442,0.2580566-6.3415527,1.3012695-9.0682983,3.0265503c0.0326538-0.0461426,0.0627441-0.0942383,0.0958252-0.1401367  c0.3790283-0.5267944,0.7738037-1.0435181,1.196167-1.5377808C14.1796875,16.6201172,15.9814453,15.0712891,17.9892578,13.8085938z   M8.1884766,43.5849609C8.3769531,43.8457031,8.6787109,44,9,44h3c0.4208984,0,0.7958984-0.2626953,0.9394531-0.6582031  l1.730957-4.7601318C15.5304565,39.4946899,16.0195313,40.7062988,16.0195313,42  c0,2.7675781-2.2519531,5.0195313-5.0195313,5.0195313S5.9804688,44.7675781,5.9804688,42  c0-2.0498047,1.2158203-3.8320313,3.0195313-4.6044922v2.4423828l-0.9482422,2.8457031  C7.9492188,42.9882813,8.0009766,43.3242188,8.1884766,43.5849609z M13.6933594,31.1074219l1.1494141,1.1494141  l-0.1815796,0.4993286c-0.0002441,0.0006104-0.0007935,0.0010376-0.0010376,0.0016479l-1.3881836,3.8180542  c-0.0003052,0.0008545-0.0011597,0.0014038-0.0014648,0.0022583L11.2998047,42h-0.9121094l0.5605469-1.6835938  C10.9824219,40.2138672,11,40.1074219,11,40v-3.9296875V36c0-0.265625-0.1054688-0.5195313-0.2929688-0.7070313  l-2.7509766-2.7509766L13.6933594,31.1074219z M11,51.0195313c-4.9736328,0-9.0195313-4.0458984-9.0195313-9.0195313  c0-3.2978516,1.8203125-6.3330078,4.6923828-7.9130859l1.4940796,1.4940796C5.6661377,36.6712646,3.9804688,39.149353,3.9804688,42  c0,3.8701172,3.1494141,7.0195313,7.0195313,7.0195313S18.0195313,45.8701172,18.0195313,42  c0-2.1470947-0.9648438-4.1276855-2.6112671-5.4473877l0.7158203-1.9685669  c0.2880859,0.2011719,0.5673218,0.4198608,0.8339233,0.656189l0.3271484,0.4902344  c0.302063,0.4575195,0.5852051,0.9212036,0.8502808,1.3898315c0.1158447,0.2047729,0.2144775,0.4138794,0.3231201,0.6204834  c0.1401978,0.2667236,0.2875977,0.5317383,0.4157715,0.8013916c0.1104126,0.2321777,0.2026367,0.4680786,0.3039551,0.7022095  c0.1074829,0.24823,0.2229004,0.4949341,0.3201294,0.7451782c0.0994263,0.2560425,0.1802368,0.5150757,0.2687988,0.7728882  c0.0762329,0.2216797,0.1601563,0.4421387,0.2283325,0.6651001C20.0134277,41.6187134,20.0195313,41.8098145,20.0195313,42  C20.0195313,46.9736328,15.9736328,51.0195313,11,51.0195313z M21.9384766,40.9316406  c-0.6533203-2.171875-1.6572266-4.2919922-2.9863281-6.3076172l-0.4003906-0.5996094  c-0.000061-0.000061-0.000061-0.0001221-0.0001221-0.0001831l-3.7196045-5.5789185C14.6464844,28.1669922,14.3339844,28,14,28h-4v-1  c0-0.1074219-0.0175781-0.2138672-0.0517578-0.3164063l-0.7871704-2.3614502l1.1748657-1.0067139  c1.848999-1.5848999,3.9937744-2.7478027,6.2825317-3.4694214l-4.1038208,2.2799683  c-0.46875,0.2597656-0.6484375,0.8427734-0.4091797,1.3212891l1,2C13.2753906,25.7861328,13.6210938,26,14,26h5h3.6669922  l10.8105469,8.1083984l-2.1845703,2.1845703l-4,4c-0.2675781,0.2675781-0.3613281,0.6640625-0.2412109,1.0234375l1,3  C28.1874905,44.7246094,28.5693359,45,29,45h4h2.2796021l0.666687,2H22.9794922  C22.8935547,44.9501953,22.5439453,42.9121094,21.9384766,40.9316406z M40.7451172,41.7451172l3.7021484-1.8505859  c0.0083008-0.0041504,0.0130615-0.0126343,0.0211792-0.0169678c0.0153809-0.0081787,0.0321045-0.0111084,0.0471802-0.0201416  l1.6971436-1.0183716l1.4628906,0.6101685c0.0078735,0.00354,0.0126343,0.0112915,0.0206299,0.0146484l4.8076172,1.9990234  C52.8056641,41.5888672,53,41.8779297,53,42.2001953C53,42.6416016,52.6416016,43,52.2001953,43h-4.8701172h-4.1503906h-3.0618896  L40.7451172,41.7451172z M53,51.0195313c-3.8505859,0-7.2519531-2.4677734-8.5078125-6.0195313h2.1897583  C47.8294067,47.425354,50.274231,49.0195313,53,49.0195313c3.8701172,0,7.0195313-3.1494141,7.0195313-7.0195313  S56.8701172,34.9804688,53,34.9804688c-0.133606,0-0.2646484,0.0166016-0.3972168,0.0241699l1.9118652-1.1472168  c0.0349121-0.0209351,0.0563354-0.0560303,0.0880737-0.0807495c0.0333862-0.0258179,0.0740967-0.0394287,0.1043091-0.0696411  l0.4585571-0.4585571c0.1627808,0.0377808,0.3247681,0.074646,0.4974976,0.1265259  c3.8017578,1.1806641,6.3564453,4.6474609,6.3564453,8.625C62.0195313,46.9736328,57.9736328,51.0195313,53,51.0195313z"/><text x="0" y="79" fill="#000000" font-size="5px" font-weight="bold" font-family="'Helvetica Neue', Helvetica, Arial-Unicode, Arial, Sans-serif"></text><text x="0" y="84" fill="#000000" font-size="5px" font-weight="bold" font-family="'Helvetica Neue', Helvetica, Arial-Unicode, Arial, Sans-serif"></text></svg>